<svg xmlns="http://www.w3.org/2000/svg" width="1600" height="2200" viewBox="0 0 1600 2200" fill="none">
  <title>Las doce constelaciones del zodiaco</title>
  <desc>Representaciones decorativas simplificadas; no es un mapa astronómico a escala.</desc>
  <!-- Las estrellas permanecen; las conexiones se dibujan y se desvanecen. -->
  <style>
    .connections {
      opacity: 0;
      stroke-dasharray: 1;
      stroke-dashoffset: 1;
      animation: connect-stars 48s linear infinite;
    }
    @keyframes connect-stars {
      0% { opacity: 0; stroke-dashoffset: 1; }
      2% { opacity: .65; stroke-dashoffset: 1; }
      6% { opacity: .65; stroke-dashoffset: 0; }
      10% { opacity: .65; stroke-dashoffset: 0; }
      12%, 100% { opacity: 0; stroke-dashoffset: 0; }
    }
    @media (prefers-reduced-motion: reduce) {
      .connections { animation: none; opacity: 0; }
    }
  </style>

  <!-- Estrellas discretas distribuidas por toda la superficie. -->
  <g fill="#e8c999">
    <circle cx="830.6" cy="1281.0" r="0.89" opacity="0.34"/>
    <circle cx="912.0" cy="442.6" r="0.97" opacity="0.24"/>
    <circle cx="608.1" cy="1267.1" r="1.00" opacity="0.23"/>
    <circle cx="1115.0" cy="1457.1" r="1.38" opacity="0.20"/>
    <circle cx="1058.3" cy="932.4" r="1.15" opacity="0.39"/>
    <circle cx="1130.9" cy="2123.7" r="0.89" opacity="0.33"/>
    <circle cx="1321.6" cy="510.0" r="0.68" opacity="0.24"/>
    <circle cx="729.9" cy="857.6" r="1.35" opacity="0.26"/>
    <circle cx="882.5" cy="1426.4" r="1.00" opacity="0.18"/>
    <circle cx="1218.9" cy="130.7" r="1.23" opacity="0.33"/>
    <circle cx="1090.3" cy="890.0" r="1.15" opacity="0.33"/>
    <circle cx="889.4" cy="1128.1" r="0.85" opacity="0.36"/>
    <circle cx="64.8" cy="785.1" r="1.22" opacity="0.33"/>
    <circle cx="1229.6" cy="1810.8" r="1.05" opacity="0.19"/>
    <circle cx="1524.9" cy="353.6" r="0.91" opacity="0.17"/>
    <circle cx="200.3" cy="564.7" r="1.30" opacity="0.14"/>
    <circle cx="1201.3" cy="1001.0" r="1.02" opacity="0.26"/>
    <circle cx="1014.3" cy="1075.6" r="1.45" opacity="0.25"/>
    <circle cx="1392.6" cy="1430.7" r="0.84" opacity="0.34"/>
    <circle cx="79.6" cy="991.0" r="1.19" opacity="0.19"/>
    <circle cx="1525.9" cy="543.0" r="0.92" opacity="0.19"/>
    <circle cx="1506.2" cy="1427.5" r="0.69" opacity="0.17"/>
    <circle cx="1060.4" cy="1561.1" r="1.10" opacity="0.17"/>
    <circle cx="1297.4" cy="264.7" r="1.41" opacity="0.40"/>
    <circle cx="514.9" cy="2123.2" r="1.24" opacity="0.33"/>
    <circle cx="1263.6" cy="1925.8" r="1.30" opacity="0.31"/>
    <circle cx="619.4" cy="860.7" r="1.41" opacity="0.18"/>
    <circle cx="521.2" cy="43.5" r="1.29" opacity="0.29"/>
    <circle cx="1170.0" cy="842.8" r="0.69" opacity="0.31"/>
    <circle cx="914.1" cy="593.0" r="0.99" opacity="0.38"/>
    <circle cx="1168.0" cy="1167.4" r="1.26" opacity="0.24"/>
    <circle cx="1079.6" cy="471.2" r="1.44" opacity="0.38"/>
    <circle cx="242.3" cy="678.2" r="0.91" opacity="0.35"/>
    <circle cx="1278.1" cy="2181.2" r="1.39" opacity="0.26"/>
    <circle cx="1356.1" cy="727.9" r="1.09" opacity="0.36"/>
    <circle cx="25.8" cy="1404.5" r="1.41" opacity="0.29"/>
    <circle cx="576.4" cy="447.8" r="0.77" opacity="0.42"/>
    <circle cx="1492.5" cy="1958.1" r="0.69" opacity="0.35"/>
    <circle cx="248.6" cy="1963.6" r="0.81" opacity="0.17"/>
    <circle cx="481.5" cy="1458.8" r="0.84" opacity="0.41"/>
    <circle cx="1333.5" cy="1577.6" r="0.87" opacity="0.23"/>
    <circle cx="294.8" cy="13.3" r="0.69" opacity="0.14"/>
    <circle cx="189.2" cy="1796.9" r="0.94" opacity="0.36"/>
    <circle cx="280.8" cy="1414.7" r="1.43" opacity="0.25"/>
    <circle cx="855.6" cy="608.0" r="1.29" opacity="0.16"/>
    <circle cx="466.5" cy="305.0" r="1.12" opacity="0.21"/>
    <circle cx="184.1" cy="1597.6" r="1.16" opacity="0.40"/>
    <circle cx="1153.5" cy="1084.1" r="1.23" opacity="0.41"/>
    <circle cx="1109.2" cy="1319.7" r="0.97" opacity="0.36"/>
    <circle cx="637.0" cy="985.3" r="0.77" opacity="0.27"/>
    <circle cx="345.9" cy="1868.8" r="0.60" opacity="0.29"/>
    <circle cx="529.4" cy="536.5" r="0.87" opacity="0.37"/>
    <circle cx="1068.9" cy="699.9" r="1.38" opacity="0.25"/>
    <circle cx="1307.3" cy="2167.6" r="1.13" opacity="0.32"/>
    <circle cx="17.2" cy="1293.7" r="0.62" opacity="0.29"/>
    <circle cx="721.8" cy="1325.1" r="1.30" opacity="0.16"/>
    <circle cx="1161.2" cy="1069.1" r="0.88" opacity="0.22"/>
    <circle cx="1393.7" cy="611.9" r="0.73" opacity="0.40"/>
    <circle cx="634.5" cy="141.3" r="0.85" opacity="0.36"/>
    <circle cx="731.1" cy="1173.5" r="0.61" opacity="0.14"/>
    <circle cx="1388.5" cy="406.6" r="0.87" opacity="0.22"/>
    <circle cx="1091.8" cy="1851.4" r="1.34" opacity="0.27"/>
    <circle cx="691.7" cy="1493.0" r="1.14" opacity="0.16"/>
    <circle cx="688.8" cy="1741.4" r="1.12" opacity="0.15"/>
    <circle cx="1032.3" cy="117.3" r="1.00" opacity="0.36"/>
    <circle cx="1580.0" cy="1799.1" r="1.45" opacity="0.31"/>
    <circle cx="184.2" cy="1568.6" r="1.01" opacity="0.25"/>
    <circle cx="1561.1" cy="1131.2" r="1.15" opacity="0.35"/>
    <circle cx="1517.5" cy="1897.6" r="1.13" opacity="0.36"/>
    <circle cx="1563.1" cy="1053.4" r="0.75" opacity="0.16"/>
    <circle cx="312.2" cy="1852.8" r="0.73" opacity="0.37"/>
    <circle cx="112.7" cy="1654.2" r="1.22" opacity="0.16"/>
    <circle cx="1376.0" cy="242.1" r="0.72" opacity="0.41"/>
    <circle cx="136.7" cy="1764.9" r="1.29" opacity="0.34"/>
    <circle cx="25.1" cy="1601.4" r="0.73" opacity="0.32"/>
    <circle cx="1250.5" cy="156.6" r="0.94" opacity="0.21"/>
    <circle cx="690.1" cy="1109.2" r="0.85" opacity="0.35"/>
    <circle cx="1230.1" cy="142.2" r="0.94" opacity="0.40"/>
    <circle cx="464.4" cy="1247.4" r="1.06" opacity="0.25"/>
    <circle cx="347.6" cy="146.1" r="0.95" opacity="0.40"/>
    <circle cx="796.9" cy="1348.0" r="1.00" opacity="0.24"/>
    <circle cx="670.8" cy="758.6" r="1.27" opacity="0.26"/>
    <circle cx="1508.2" cy="1447.2" r="0.76" opacity="0.40"/>
    <circle cx="326.5" cy="2118.0" r="0.64" opacity="0.22"/>
    <circle cx="831.3" cy="824.2" r="1.12" opacity="0.36"/>
    <circle cx="107.6" cy="337.9" r="1.05" opacity="0.27"/>
    <circle cx="1474.7" cy="2127.3" r="0.69" opacity="0.31"/>
    <circle cx="303.6" cy="421.4" r="0.98" opacity="0.41"/>
    <circle cx="590.5" cy="1466.1" r="0.94" opacity="0.17"/>
    <circle cx="395.0" cy="2061.0" r="0.75" opacity="0.40"/>
    <circle cx="1565.7" cy="1529.9" r="1.27" opacity="0.16"/>
    <circle cx="32.1" cy="1925.5" r="1.37" opacity="0.19"/>
    <circle cx="237.1" cy="1951.7" r="1.18" opacity="0.21"/>
    <circle cx="1296.5" cy="1532.1" r="1.10" opacity="0.21"/>
    <circle cx="830.6" cy="1799.7" r="1.00" opacity="0.31"/>
    <circle cx="1186.7" cy="1085.9" r="0.77" opacity="0.39"/>
    <circle cx="1583.4" cy="1113.9" r="1.19" opacity="0.22"/>
    <circle cx="1188.2" cy="1084.7" r="0.85" opacity="0.29"/>
    <circle cx="610.3" cy="1489.9" r="1.03" opacity="0.14"/>
    <circle cx="746.4" cy="790.7" r="1.36" opacity="0.34"/>
    <circle cx="1474.5" cy="1347.7" r="0.98" opacity="0.22"/>
    <circle cx="1503.3" cy="108.2" r="1.20" opacity="0.33"/>
    <circle cx="1080.6" cy="1148.4" r="1.12" opacity="0.35"/>
    <circle cx="178.9" cy="507.1" r="1.14" opacity="0.15"/>
    <circle cx="972.8" cy="1115.6" r="1.43" opacity="0.31"/>
    <circle cx="115.1" cy="633.7" r="1.07" opacity="0.26"/>
    <circle cx="956.0" cy="184.2" r="0.78" opacity="0.15"/>
    <circle cx="404.2" cy="1866.9" r="1.02" opacity="0.19"/>
    <circle cx="321.2" cy="534.6" r="1.18" opacity="0.36"/>
    <circle cx="520.9" cy="2020.9" r="0.67" opacity="0.23"/>
    <circle cx="353.9" cy="273.7" r="1.27" opacity="0.35"/>
    <circle cx="1498.1" cy="1173.8" r="0.83" opacity="0.22"/>
    <circle cx="227.1" cy="421.9" r="1.16" opacity="0.32"/>
    <circle cx="486.2" cy="2183.6" r="0.98" opacity="0.39"/>
    <circle cx="497.7" cy="46.6" r="0.70" opacity="0.33"/>
    <circle cx="816.4" cy="1528.8" r="1.27" opacity="0.27"/>
    <circle cx="1566.1" cy="1341.5" r="1.42" opacity="0.25"/>
    <circle cx="1227.8" cy="996.6" r="1.44" opacity="0.33"/>
    <circle cx="260.9" cy="672.5" r="1.13" opacity="0.27"/>
    <circle cx="598.1" cy="976.7" r="0.79" opacity="0.40"/>
    <circle cx="345.7" cy="470.1" r="1.45" opacity="0.33"/>
    <circle cx="798.1" cy="1521.5" r="1.06" opacity="0.21"/>
    <circle cx="610.9" cy="547.1" r="1.22" opacity="0.35"/>
    <circle cx="1349.8" cy="272.6" r="0.96" opacity="0.39"/>
    <circle cx="48.9" cy="1543.8" r="1.23" opacity="0.30"/>
    <circle cx="108.5" cy="333.3" r="1.26" opacity="0.23"/>
    <circle cx="1152.7" cy="878.3" r="0.66" opacity="0.18"/>
    <circle cx="1548.7" cy="1927.8" r="0.76" opacity="0.37"/>
    <circle cx="278.6" cy="824.0" r="0.68" opacity="0.35"/>
    <circle cx="1053.3" cy="1826.2" r="1.00" opacity="0.36"/>
    <circle cx="1412.5" cy="372.5" r="1.38" opacity="0.23"/>
    <circle cx="507.1" cy="536.2" r="1.12" opacity="0.23"/>
    <circle cx="1200.3" cy="1403.7" r="0.80" opacity="0.28"/>
    <circle cx="1473.5" cy="2000.5" r="1.35" opacity="0.36"/>
    <circle cx="541.6" cy="821.0" r="0.94" opacity="0.19"/>
    <circle cx="1235.6" cy="1440.7" r="0.94" opacity="0.23"/>
    <circle cx="87.0" cy="1354.0" r="1.33" opacity="0.35"/>
    <circle cx="1180.4" cy="588.0" r="1.43" opacity="0.36"/>
    <circle cx="180.0" cy="1786.1" r="1.33" opacity="0.34"/>
    <circle cx="667.1" cy="159.1" r="0.74" opacity="0.18"/>
    <circle cx="501.9" cy="1489.9" r="1.05" opacity="0.18"/>
    <circle cx="79.3" cy="99.2" r="1.29" opacity="0.31"/>
    <circle cx="1000.5" cy="1827.3" r="0.76" opacity="0.22"/>
    <circle cx="420.5" cy="1050.7" r="1.22" opacity="0.25"/>
    <circle cx="943.0" cy="57.1" r="0.62" opacity="0.19"/>
    <circle cx="1033.6" cy="508.7" r="1.31" opacity="0.30"/>
    <circle cx="832.1" cy="1907.7" r="0.67" opacity="0.28"/>
    <circle cx="184.4" cy="1102.3" r="1.00" opacity="0.21"/>
    <circle cx="866.3" cy="497.6" r="1.07" opacity="0.20"/>
    <circle cx="88.2" cy="482.1" r="0.74" opacity="0.26"/>
    <circle cx="683.7" cy="80.3" r="0.92" opacity="0.27"/>
    <circle cx="580.9" cy="2054.5" r="1.10" opacity="0.24"/>
    <circle cx="389.7" cy="1776.7" r="0.74" opacity="0.28"/>
    <circle cx="393.3" cy="781.7" r="1.39" opacity="0.29"/>
    <circle cx="1288.1" cy="1433.8" r="0.94" opacity="0.31"/>
    <circle cx="1289.4" cy="728.2" r="1.00" opacity="0.15"/>
    <circle cx="1576.8" cy="1788.7" r="0.62" opacity="0.21"/>
    <circle cx="848.4" cy="1133.3" r="1.10" opacity="0.38"/>
    <circle cx="1225.9" cy="1879.6" r="0.79" opacity="0.41"/>
    <circle cx="750.3" cy="1150.4" r="1.43" opacity="0.19"/>
    <circle cx="240.9" cy="763.1" r="1.19" opacity="0.35"/>
    <circle cx="545.7" cy="1452.0" r="0.79" opacity="0.14"/>
    <circle cx="1368.7" cy="277.4" r="0.61" opacity="0.17"/>
    <circle cx="608.8" cy="521.0" r="1.21" opacity="0.27"/>
    <circle cx="1448.0" cy="311.5" r="1.03" opacity="0.26"/>
    <circle cx="54.2" cy="888.7" r="1.32" opacity="0.27"/>
    <circle cx="1423.2" cy="1841.6" r="0.86" opacity="0.22"/>
    <circle cx="678.3" cy="1338.4" r="0.99" opacity="0.22"/>
    <circle cx="261.5" cy="292.9" r="1.30" opacity="0.38"/>
    <circle cx="1123.1" cy="1236.1" r="1.23" opacity="0.25"/>
    <circle cx="1215.0" cy="1927.9" r="0.93" opacity="0.26"/>
    <circle cx="224.9" cy="1726.4" r="0.88" opacity="0.41"/>
    <circle cx="405.2" cy="40.9" r="0.93" opacity="0.38"/>
    <circle cx="65.8" cy="1615.5" r="1.24" opacity="0.39"/>
    <circle cx="392.3" cy="339.0" r="1.06" opacity="0.20"/>
    <circle cx="830.2" cy="1019.9" r="0.77" opacity="0.32"/>
    <circle cx="1327.5" cy="1769.2" r="1.12" opacity="0.28"/>
    <circle cx="103.6" cy="1882.2" r="1.11" opacity="0.15"/>
    <circle cx="1289.5" cy="371.5" r="0.91" opacity="0.20"/>
    <circle cx="1356.0" cy="991.6" r="1.44" opacity="0.28"/>
    <circle cx="1064.7" cy="898.4" r="1.36" opacity="0.22"/>
    <circle cx="1589.3" cy="1672.6" r="0.78" opacity="0.38"/>
    <circle cx="731.1" cy="1321.3" r="0.73" opacity="0.36"/>
    <circle cx="807.4" cy="538.0" r="1.40" opacity="0.33"/>
    <circle cx="685.5" cy="361.9" r="1.40" opacity="0.16"/>
    <circle cx="131.2" cy="1629.8" r="1.45" opacity="0.25"/>
    <circle cx="795.4" cy="1890.8" r="0.69" opacity="0.25"/>
    <circle cx="1196.6" cy="1265.5" r="1.43" opacity="0.28"/>
    <circle cx="833.8" cy="932.2" r="0.66" opacity="0.21"/>
    <circle cx="516.6" cy="270.4" r="0.77" opacity="0.40"/>
    <circle cx="618.2" cy="1414.4" r="1.21" opacity="0.23"/>
    <circle cx="927.1" cy="2177.1" r="1.43" opacity="0.25"/>
    <circle cx="1433.2" cy="267.3" r="1.05" opacity="0.35"/>
    <circle cx="615.9" cy="1750.3" r="0.76" opacity="0.38"/>
    <circle cx="836.8" cy="1085.2" r="0.66" opacity="0.18"/>
    <circle cx="816.8" cy="898.3" r="0.71" opacity="0.15"/>
    <circle cx="1390.5" cy="676.8" r="1.28" opacity="0.17"/>
    <circle cx="565.9" cy="1831.0" r="1.26" opacity="0.38"/>
    <circle cx="133.4" cy="820.8" r="0.71" opacity="0.25"/>
    <circle cx="642.5" cy="1443.5" r="0.78" opacity="0.23"/>
    <circle cx="1459.4" cy="1628.2" r="1.38" opacity="0.28"/>
    <circle cx="893.8" cy="2186.3" r="1.04" opacity="0.39"/>
    <circle cx="1258.9" cy="490.3" r="0.67" opacity="0.40"/>
    <circle cx="422.9" cy="182.1" r="1.36" opacity="0.29"/>
    <circle cx="784.1" cy="973.3" r="1.26" opacity="0.40"/>
    <circle cx="640.9" cy="728.0" r="0.66" opacity="0.23"/>
    <circle cx="1257.1" cy="1139.6" r="1.13" opacity="0.38"/>
    <circle cx="122.8" cy="144.8" r="0.68" opacity="0.26"/>
    <circle cx="1343.5" cy="534.2" r="0.99" opacity="0.16"/>
    <circle cx="226.6" cy="1552.3" r="0.96" opacity="0.41"/>
    <circle cx="647.8" cy="1858.5" r="0.84" opacity="0.28"/>
    <circle cx="936.8" cy="1350.2" r="0.83" opacity="0.16"/>
    <circle cx="1334.5" cy="789.7" r="1.05" opacity="0.29"/>
    <circle cx="1151.6" cy="906.3" r="0.86" opacity="0.15"/>
    <circle cx="1551.0" cy="1006.4" r="1.22" opacity="0.35"/>
    <circle cx="253.1" cy="2030.4" r="1.19" opacity="0.21"/>
    <circle cx="1196.1" cy="2101.3" r="0.91" opacity="0.39"/>
    <circle cx="962.2" cy="1494.1" r="0.94" opacity="0.28"/>
    <circle cx="1070.5" cy="1798.8" r="0.70" opacity="0.37"/>
    <circle cx="836.8" cy="2037.8" r="1.31" opacity="0.19"/>
    <circle cx="152.8" cy="1580.1" r="0.97" opacity="0.31"/>
    <circle cx="853.7" cy="622.9" r="1.25" opacity="0.35"/>
    <circle cx="477.6" cy="453.5" r="0.89" opacity="0.28"/>
    <circle cx="1054.3" cy="1891.0" r="1.13" opacity="0.38"/>
    <circle cx="658.6" cy="852.1" r="1.15" opacity="0.21"/>
    <circle cx="634.3" cy="149.3" r="0.63" opacity="0.42"/>
    <circle cx="174.9" cy="496.7" r="0.94" opacity="0.18"/>
    <circle cx="896.7" cy="1821.4" r="1.25" opacity="0.39"/>
    <circle cx="200.8" cy="745.4" r="1.16" opacity="0.28"/>
    <circle cx="1588.9" cy="1165.8" r="1.30" opacity="0.18"/>
    <circle cx="980.1" cy="909.5" r="1.16" opacity="0.35"/>
    <circle cx="103.5" cy="819.1" r="0.66" opacity="0.36"/>
    <circle cx="483.5" cy="335.7" r="0.74" opacity="0.18"/>
    <circle cx="1442.7" cy="866.8" r="1.43" opacity="0.41"/>
    <circle cx="669.8" cy="1714.1" r="0.80" opacity="0.14"/>
    <circle cx="1026.6" cy="39.4" r="1.26" opacity="0.36"/>
    <circle cx="811.4" cy="353.1" r="0.80" opacity="0.23"/>
    <circle cx="385.0" cy="315.0" r="1.39" opacity="0.15"/>
    <circle cx="1583.0" cy="839.9" r="0.79" opacity="0.25"/>
    <circle cx="433.6" cy="1848.7" r="1.31" opacity="0.17"/>
  </g>
  <g id="aries" transform="translate(22 100)">
    <title>Aries</title>
    <g class="connections" style="animation-delay: -0s" stroke="#cba06b" stroke-width="1.2" stroke-linecap="round" stroke-linejoin="round">
      <polyline pathLength="1" points="10,70 90,45 140,75 156,106"/>
    </g>
    <g fill="#e8c999" fill-opacity=".38">
      <circle cx="10" cy="70" r="1.8"/>
      <circle cx="90" cy="45" r="2.8"/>
      <circle cx="140" cy="75" r="1.8"/>
      <circle cx="156" cy="106" r="1.8"/>
    </g>
  </g>
  <g id="taurus" transform="translate(1385 100)">
    <title>Tauro</title>
    <g class="connections" style="animation-delay: -4s" stroke="#cba06b" stroke-width="1.2" stroke-linecap="round" stroke-linejoin="round">
      <polyline pathLength="1" points="0,5 60,55 105,105 140,62 185,12"/>
      <polyline pathLength="1" points="105,105 70,130"/>
    </g>
    <g fill="#e8c999" fill-opacity=".38">
      <circle cx="0" cy="5" r="1.8"/>
      <circle cx="60" cy="55" r="2.8"/>
      <circle cx="105" cy="105" r="1.8"/>
      <circle cx="140" cy="62" r="1.8"/>
      <circle cx="185" cy="12" r="1.8"/>
      <circle cx="70" cy="130" r="1.8"/>
    </g>
  </g>
  <g id="gemini" transform="translate(22 445)">
    <title>Géminis</title>
    <g class="connections" style="animation-delay: -8s" stroke="#cba06b" stroke-width="1.2" stroke-linecap="round" stroke-linejoin="round">
      <polyline pathLength="1" points="30,0 45,65 18,145"/>
      <polyline pathLength="1" points="45,65 74,145"/>
      <polyline pathLength="1" points="135,10 123,73 110,150"/>
      <polyline pathLength="1" points="123,73 168,142"/>
      <polyline pathLength="1" points="45,65 123,73"/>
    </g>
    <g fill="#e8c999" fill-opacity=".38">
      <circle cx="30" cy="0" r="1.8"/>
      <circle cx="135" cy="10" r="2.8"/>
      <circle cx="45" cy="65" r="1.8"/>
      <circle cx="123" cy="73" r="1.8"/>
      <circle cx="18" cy="145" r="1.8"/>
      <circle cx="74" cy="145" r="1.8"/>
      <circle cx="110" cy="150" r="1.8"/>
      <circle cx="168" cy="142" r="1.8"/>
    </g>
  </g>
  <g id="cancer" transform="translate(1385 445)">
    <title>Cáncer</title>
    <g class="connections" style="animation-delay: -12s" stroke="#cba06b" stroke-width="1.2" stroke-linecap="round" stroke-linejoin="round">
      <polyline pathLength="1" points="45,10 85,60 140,0"/>
      <polyline pathLength="1" points="85,60 35,130"/>
      <polyline pathLength="1" points="85,60 150,145"/>
    </g>
    <g fill="#e8c999" fill-opacity=".38">
      <circle cx="85" cy="60" r="1.8"/>
      <circle cx="45" cy="10" r="2.8"/>
      <circle cx="140" cy="0" r="1.8"/>
      <circle cx="35" cy="130" r="1.8"/>
      <circle cx="150" cy="145" r="1.8"/>
    </g>
  </g>
  <g id="leo" transform="translate(22 790)">
    <title>Leo</title>
    <g class="connections" style="animation-delay: -16s" stroke="#cba06b" stroke-width="1.2" stroke-linecap="round" stroke-linejoin="round">
      <polyline pathLength="1" points="140,0 108,20 100,55 137,80 155,130 60,135 0,105 137,80"/>
      <polyline pathLength="1" points="60,135 137,80"/>
    </g>
    <g fill="#e8c999" fill-opacity=".38">
      <circle cx="140" cy="0" r="1.8"/>
      <circle cx="108" cy="20" r="2.8"/>
      <circle cx="100" cy="55" r="1.8"/>
      <circle cx="137" cy="80" r="1.8"/>
      <circle cx="155" cy="130" r="1.8"/>
      <circle cx="60" cy="135" r="1.8"/>
      <circle cx="0" cy="105" r="1.8"/>
    </g>
  </g>
  <g id="virgo" transform="translate(1385 790)">
    <title>Virgo</title>
    <g class="connections" style="animation-delay: -20s" stroke="#cba06b" stroke-width="1.2" stroke-linecap="round" stroke-linejoin="round">
      <polyline pathLength="1" points="5,25 60,45 100,90 145,70 180,100"/>
      <polyline pathLength="1" points="100,90 110,145"/>
      <polyline pathLength="1" points="100,90 65,125 30,165"/>
    </g>
    <g fill="#e8c999" fill-opacity=".38">
      <circle cx="5" cy="25" r="1.8"/>
      <circle cx="60" cy="45" r="2.8"/>
      <circle cx="100" cy="90" r="1.8"/>
      <circle cx="145" cy="70" r="1.8"/>
      <circle cx="180" cy="100" r="1.8"/>
      <circle cx="110" cy="145" r="1.8"/>
      <circle cx="65" cy="125" r="1.8"/>
      <circle cx="30" cy="165" r="1.8"/>
    </g>
  </g>
  <g id="libra" transform="translate(22 1135)">
    <title>Libra</title>
    <g class="connections" style="animation-delay: -24s" stroke="#cba06b" stroke-width="1.2" stroke-linecap="round" stroke-linejoin="round">
      <polyline pathLength="1" points="90,5 15,70 145,85 90,5"/>
      <polyline pathLength="1" points="145,85 115,145"/>
      <polyline pathLength="1" points="15,70 35,155"/>
    </g>
    <g fill="#e8c999" fill-opacity=".38">
      <circle cx="90" cy="5" r="1.8"/>
      <circle cx="15" cy="70" r="2.8"/>
      <circle cx="145" cy="85" r="1.8"/>
      <circle cx="115" cy="145" r="1.8"/>
      <circle cx="35" cy="155" r="1.8"/>
    </g>
  </g>
  <g id="scorpius" transform="translate(1385 1135)">
    <title>Escorpio</title>
    <g class="connections" style="animation-delay: -28s" stroke="#cba06b" stroke-width="1.2" stroke-linecap="round" stroke-linejoin="round">
      <polyline pathLength="1" points="10,0 30,40 55,20"/>
      <polyline pathLength="1" points="30,40 60,72 68,115 100,155 145,155 173,125 154,102"/>
    </g>
    <g fill="#e8c999" fill-opacity=".38">
      <circle cx="10" cy="0" r="1.8"/>
      <circle cx="30" cy="40" r="2.8"/>
      <circle cx="55" cy="20" r="1.8"/>
      <circle cx="60" cy="72" r="1.8"/>
      <circle cx="68" cy="115" r="1.8"/>
      <circle cx="100" cy="155" r="1.8"/>
      <circle cx="145" cy="155" r="1.8"/>
      <circle cx="173" cy="125" r="1.8"/>
      <circle cx="154" cy="102" r="1.8"/>
    </g>
  </g>
  <g id="sagittarius" transform="translate(22 1480)">
    <title>Sagitario</title>
    <g class="connections" style="animation-delay: -32s" stroke="#cba06b" stroke-width="1.2" stroke-linecap="round" stroke-linejoin="round">
      <polyline pathLength="1" points="25,65 65,35 108,45 125,100 58,110 25,65 0,90 58,110"/>
      <polyline pathLength="1" points="108,45 145,35 175,65 125,100"/>
      <polyline pathLength="1" points="65,35 88,0 108,45"/>
    </g>
    <g fill="#e8c999" fill-opacity=".38">
      <circle cx="25" cy="65" r="1.8"/>
      <circle cx="65" cy="35" r="2.8"/>
      <circle cx="108" cy="45" r="1.8"/>
      <circle cx="125" cy="100" r="1.8"/>
      <circle cx="58" cy="110" r="1.8"/>
      <circle cx="0" cy="90" r="1.8"/>
      <circle cx="145" cy="35" r="1.8"/>
      <circle cx="175" cy="65" r="1.8"/>
      <circle cx="88" cy="0" r="1.8"/>
    </g>
  </g>
  <g id="capricornus" transform="translate(1385 1480)">
    <title>Capricornio</title>
    <g class="connections" style="animation-delay: -36s" stroke="#cba06b" stroke-width="1.2" stroke-linecap="round" stroke-linejoin="round">
      <polyline pathLength="1" points="0,20 45,40 180,0 155,95 98,145 32,95 0,20"/>
    </g>
    <g fill="#e8c999" fill-opacity=".38">
      <circle cx="0" cy="20" r="1.8"/>
      <circle cx="45" cy="40" r="2.8"/>
      <circle cx="180" cy="0" r="1.8"/>
      <circle cx="155" cy="95" r="1.8"/>
      <circle cx="98" cy="145" r="1.8"/>
      <circle cx="32" cy="95" r="1.8"/>
    </g>
  </g>
  <g id="aquarius" transform="translate(22 1825)">
    <title>Acuario</title>
    <g class="connections" style="animation-delay: -40s" stroke="#cba06b" stroke-width="1.2" stroke-linecap="round" stroke-linejoin="round">
      <polyline pathLength="1" points="0,45 50,65 90,30 120,42 143,18"/>
      <polyline pathLength="1" points="120,42 135,95 170,130 140,160"/>
      <polyline pathLength="1" points="135,95 65,120 90,30"/>
    </g>
    <g fill="#e8c999" fill-opacity=".38">
      <circle cx="0" cy="45" r="1.8"/>
      <circle cx="50" cy="65" r="2.8"/>
      <circle cx="90" cy="30" r="1.8"/>
      <circle cx="120" cy="42" r="1.8"/>
      <circle cx="143" cy="18" r="1.8"/>
      <circle cx="135" cy="95" r="1.8"/>
      <circle cx="170" cy="130" r="1.8"/>
      <circle cx="140" cy="160" r="1.8"/>
      <circle cx="65" cy="120" r="1.8"/>
    </g>
  </g>
  <g id="pisces" transform="translate(1385 1825)">
    <title>Piscis</title>
    <g class="connections" style="animation-delay: -44s" stroke="#cba06b" stroke-width="1.2" stroke-linecap="round" stroke-linejoin="round">
      <polyline pathLength="1" points="15,35 0,70 24,100 50,72 15,35"/>
      <polyline pathLength="1" points="24,100 100,155 160,90 178,45 150,15 126,48 160,90"/>
    </g>
    <g fill="#e8c999" fill-opacity=".38">
      <circle cx="15" cy="35" r="1.8"/>
      <circle cx="0" cy="70" r="2.8"/>
      <circle cx="24" cy="100" r="1.8"/>
      <circle cx="50" cy="72" r="1.8"/>
      <circle cx="100" cy="155" r="1.8"/>
      <circle cx="160" cy="90" r="1.8"/>
      <circle cx="178" cy="45" r="1.8"/>
      <circle cx="150" cy="15" r="1.8"/>
      <circle cx="126" cy="48" r="1.8"/>
    </g>
  </g>
</svg>
